<svg width="684" height="461" viewBox="0 0 684 461" fill="none" xmlns="http://www.w3.org/2000/svg">
<g id="Illustration">
<g id="Meeting">
<g id="Group 63">
<path id="Rectangle" fill-rule="evenodd" clip-rule="evenodd" d="M0 18C0 9.16344 7.16344 2 16 2H486.128C494.965 2 502.128 9.16344 502.128 18V222.224C502.128 231.061 494.965 238.224 486.128 238.224H16C7.16347 238.224 0 231.061 0 222.224V18Z" fill="#E7FCFF"/>
<path id="Rectangle_2" opacity="0.383371" fill-rule="evenodd" clip-rule="evenodd" d="M7.55078 18C7.55078 9.16344 14.7142 2 23.5508 2H486.128C494.965 2 502.128 9.16344 502.128 18V222.224C502.128 231.061 494.965 238.224 486.128 238.224H23.5508C14.7143 238.224 7.55078 231.061 7.55078 222.224V18Z" fill="#00CFE8"/>
<path id="Rectangle_3" fill-rule="evenodd" clip-rule="evenodd" d="M15.1016 19.5591C15.1016 14.0362 19.5787 9.55908 25.1016 9.55908H484.577C490.1 9.55908 494.577 14.0362 494.577 19.5591V220.665C494.577 226.188 490.1 230.665 484.577 230.665H25.1016C19.5787 230.665 15.1016 226.188 15.1016 220.665L15.1016 19.5591Z" fill="#E7FCFF"/>
<path id="Rectangle_4" fill-rule="evenodd" clip-rule="evenodd" d="M214.254 216.822C214.254 213.509 216.94 210.822 220.254 210.822H289.425C292.739 210.822 295.425 213.509 295.425 216.822V230.665H214.254V216.822Z" fill="#D4EFFF"/>
<path id="Rectangle_5" d="M221.805 216.822C221.805 213.509 224.491 210.822 227.805 210.822H296.976C300.29 210.822 302.976 213.509 302.976 216.822V238.224H221.805V216.822Z" fill="#91D6FF"/>
</g>
<g id="ElementCard20">
<g id="Rectangle_6" filter="url(#filter0_dd_515_2035)">
<path fill-rule="evenodd" clip-rule="evenodd" d="M29.2593 24.3971C29.2593 21.4209 31.6719 19.0083 34.648 19.0083H159.672C162.648 19.0083 165.061 21.4209 165.061 24.3971V65.0471C165.061 68.0232 162.648 70.4358 159.672 70.4358H34.648C31.6719 70.4358 29.2593 68.0232 29.2593 65.0471V24.3971Z" fill="white"/>
</g>
<path id="Rectangle_7" opacity="0.454078" fill-rule="evenodd" clip-rule="evenodd" d="M69.4402 49.5593C69.4402 48.7156 70.1241 48.0317 70.9677 48.0317H96.3953C97.2389 48.0317 97.9228 48.7156 97.9228 49.5593C97.9228 50.4029 97.2389 51.0868 96.3953 51.0868H70.9677C70.1241 51.0868 69.4402 50.4029 69.4402 49.5593Z" fill="#C7C1FF"/>
<path id="Rectangle_8" fill-rule="evenodd" clip-rule="evenodd" d="M69.4402 40.903C69.4402 40.0594 70.1241 39.3755 70.9677 39.3755H86.2229C87.0666 39.3755 87.7505 40.0594 87.7505 40.903C87.7505 41.7467 87.0666 42.4306 86.2229 42.4306H70.9677C70.1241 42.4306 69.4402 41.7467 69.4402 40.903Z" fill="#8478FF"/>
<g id="Group 9">
<path id="Path" fill-rule="evenodd" clip-rule="evenodd" d="M144.216 37.2836C146.386 34.4292 150.457 33.8762 153.308 36.0485C153.964 36.5482 154.518 37.1684 154.942 37.876C155.161 38.2407 155.043 38.7135 154.678 38.9323C154.314 39.151 153.842 39.0327 153.623 38.668C153.3 38.1282 152.877 37.655 152.376 37.2738C150.245 35.6503 147.222 36.022 145.543 38.0849L145.44 38.2161L143.056 41.3531C139.33 46.2534 133.028 48.414 127.097 46.8481L126.843 46.7787L124.924 46.2366C124.8 46.2017 124.676 46.1705 124.551 46.1428C121.043 45.3691 117.572 47.5406 116.713 51.0104L116.672 51.1821L116.277 52.98C116.137 53.6163 115.865 54.2163 115.479 54.7412C113.954 56.8171 111.036 57.2619 108.963 55.7348C108.621 55.4828 108.547 55.0009 108.799 54.6584C109.051 54.3159 109.532 54.2425 109.874 54.4945C111.264 55.5177 113.218 55.2196 114.24 53.8287C114.467 53.521 114.634 53.1748 114.735 52.8074L114.775 52.6487L115.17 50.8508C116.139 46.4509 120.486 43.6698 124.882 44.6391L125.112 44.6936L125.342 44.7547L127.26 45.2969C132.575 46.7984 138.261 44.9454 141.676 40.6219L141.832 40.4206L144.216 37.2836Z" fill="#8478FF"/>
<path id="Path_2" fill-rule="evenodd" clip-rule="evenodd" d="M137.285 36.353C138.856 32.8565 142.96 31.2965 146.453 32.8686C147.155 33.1844 147.799 33.6149 148.359 34.1424C149.679 35.3843 150.9 37.3473 152.045 40.0347C152.212 40.4258 152.03 40.8781 151.64 41.0449C151.249 41.2117 150.797 41.03 150.631 40.6389C149.562 38.1303 148.446 36.3377 147.306 35.2642C146.87 34.8537 146.368 34.5187 145.822 34.2729C143.154 33.0718 140.026 34.2202 138.757 36.8376L138.688 36.9845L138.193 38.0862C138.078 38.3428 137.946 38.5913 137.797 38.83C135.97 41.7662 132.111 42.6635 129.178 40.834C128.829 40.6162 128.446 40.458 128.044 40.366C126.093 39.9185 124.148 41.1017 123.634 43.0218L123.6 43.1569L122.744 46.8986C122.486 48.026 121.939 49.0665 121.156 49.9174C118.716 52.5712 114.618 52.7854 111.916 50.4337L111.773 50.3053L108.286 47.0918C107.974 46.8038 107.954 46.3167 108.242 46.0039C108.51 45.712 108.952 45.675 109.264 45.9055L109.328 45.959L112.815 49.1725C114.888 51.0835 118.116 50.95 120.025 48.8744C120.58 48.2709 120.981 47.5433 121.195 46.7536L121.245 46.5549L122.101 42.8131C122.748 39.9849 125.563 38.2174 128.388 38.8651C128.884 38.979 129.361 39.1645 129.804 39.4156L129.991 39.5272C132.203 40.9069 135.114 40.2302 136.492 38.0158C136.567 37.8957 136.636 37.7724 136.699 37.6462L136.791 37.4548L137.285 36.353Z" fill="#C7C1FF"/>
</g>
<ellipse id="Oval" cx="51.8928" cy="45.2312" rx="10.4267" ry="10.4383" fill="#8478FF"/>
</g>
<g id="ElementCard3">
<g id="Rectangle_9" filter="url(#filter1_dd_515_2035)">
<path fill-rule="evenodd" clip-rule="evenodd" d="M29.2593 82.5918C29.2593 79.8304 31.4979 77.5918 34.2593 77.5918H193.208C195.97 77.5918 198.208 79.8304 198.208 82.5918V215.271C198.208 218.033 195.97 220.271 193.208 220.271H34.2593C31.4979 220.271 29.2593 218.033 29.2593 215.271V82.5918Z" fill="white"/>
</g>
<mask id="mask0_515_2035" style="mask-type:alpha" maskUnits="userSpaceOnUse" x="29" y="77" width="170" height="144">
<path id="Rectangle_10" fill-rule="evenodd" clip-rule="evenodd" d="M29.2593 82.5918C29.2593 79.8304 31.4979 77.5918 34.2593 77.5918H193.208C195.97 77.5918 198.208 79.8304 198.208 82.5918V215.271C198.208 218.033 195.97 220.271 193.208 220.271H34.2593C31.4979 220.271 29.2593 218.033 29.2593 215.271V82.5918Z" fill="white"/>
</mask>
<g mask="url(#mask0_515_2035)">
<g id="Path 3" filter="url(#filter2_d_515_2035)">
<path d="M51.9116 187.2C51.9116 187.2 71.9967 181.425 80.8527 169.639C89.7087 157.853 92.6944 146.428 107.926 146.428C123.157 146.428 125.11 163.925 141.576 163.925C158.041 163.925 158.942 141.612 164.414 132.752C169.887 123.892 179.331 123.892 179.331 123.892" stroke="#8EEAF6" stroke-width="4.004" stroke-linecap="round"/>
</g>
<path id="Path 3_2" opacity="0.414737" fill-rule="evenodd" clip-rule="evenodd" d="M51.9116 185.982C51.9116 185.982 71.9967 180.232 80.8527 168.497C89.7087 156.761 92.6944 145.386 107.926 145.386C123.157 145.386 125.11 162.808 141.576 162.808C158.041 162.808 158.942 140.59 164.414 131.769C169.887 122.947 179.331 122.947 179.331 122.947V197.348C179.331 199.049 177.952 200.428 176.251 200.428H54.9916C53.2906 200.428 51.9116 199.049 51.9116 197.348V185.982Z" fill="#CEF9FF"/>
<rect id="Rectangle_11" x="42.4731" y="91.7651" width="52.8556" height="5.66939" rx="2.83469" fill="#8EEAF6"/>
<path id="Rectangle_12" fill-rule="evenodd" clip-rule="evenodd" d="M42.4731 108.774C42.4731 107.208 43.7423 105.939 45.3078 105.939H64.1786C65.7441 105.939 67.0133 107.208 67.0133 108.774C67.0133 110.339 65.7441 111.608 64.1786 111.608H45.3078C43.7423 111.608 42.4731 110.339 42.4731 108.774Z" fill="#8EEAF6" fill-opacity="0.401934"/>
<ellipse id="Oval_2" cx="165.646" cy="95.0723" rx="3.30348" ry="3.30714" fill="#8EEAF6" fill-opacity="0.451705"/>
<ellipse id="Oval_3" cx="175.084" cy="95.0723" rx="3.30348" ry="3.30714" fill="#8EEAF6" fill-opacity="0.451705"/>
<ellipse id="Oval_4" cx="184.523" cy="95.0723" rx="3.30348" ry="3.30714" fill="#8EEAF6" fill-opacity="0.451705"/>
</g>
</g>
<g id="ElementCard11">
<g id="Rectangle_13" filter="url(#filter3_d_515_2035)">
<path fill-rule="evenodd" clip-rule="evenodd" d="M224.636 39.7212C224.636 35.5877 227.987 32.2368 232.121 32.2368H457.333C461.467 32.2368 464.818 35.5877 464.818 39.7212V190.237C464.818 194.371 461.467 197.721 457.333 197.721H232.121C227.987 197.721 224.636 194.371 224.636 190.237V39.7212Z" fill="white"/>
</g>
<g id="Group 26">
<path id="Path_3" fill-rule="evenodd" clip-rule="evenodd" d="M265.255 117.101V176.287H256.425V117.101H265.255Z" fill="#E7E4FF"/>
<path id="Path_4" fill-rule="evenodd" clip-rule="evenodd" d="M265.255 131.245V176.287H256.425V131.245H265.255Z" fill="#C7C1FF"/>
<path id="Path_5" fill-rule="evenodd" clip-rule="evenodd" d="M265.255 159.533V176.287H256.425V159.533H265.255Z" fill="#8478FF"/>
</g>
<g id="Group 26_2">
<path id="Path_6" fill-rule="evenodd" clip-rule="evenodd" d="M286.448 102.957V176.287H277.618V102.957H286.448Z" fill="#E7E4FF"/>
<path id="Path_7" fill-rule="evenodd" clip-rule="evenodd" d="M286.448 124.172V176.287H277.618V124.172H286.448Z" fill="#C7C1FF"/>
<path id="Path_8" fill-rule="evenodd" clip-rule="evenodd" d="M286.448 159.533V176.287H277.618V159.533H286.448Z" fill="#8478FF"/>
</g>
<g id="Group 26_3">
<path id="Path_9" fill-rule="evenodd" clip-rule="evenodd" d="M307.64 113.565V176.287H298.81V113.565H307.64Z" fill="#E7E4FF"/>
<path id="Path_10" fill-rule="evenodd" clip-rule="evenodd" d="M307.64 134.781V176.287H298.81V134.781H307.64Z" fill="#C7C1FF"/>
<path id="Path_11" fill-rule="evenodd" clip-rule="evenodd" d="M307.64 163.069V176.287H298.81V163.069H307.64Z" fill="#8478FF"/>
</g>
<g id="Group 26_4">
<path id="Path_12" fill-rule="evenodd" clip-rule="evenodd" d="M328.833 95.8848V176.287H320.002V95.8848H328.833Z" fill="#E7E4FF"/>
<path id="Path_13" fill-rule="evenodd" clip-rule="evenodd" d="M328.833 117.101V176.287H320.002V117.101H328.833Z" fill="#C7C1FF"/>
<path id="Path_14" fill-rule="evenodd" clip-rule="evenodd" d="M328.833 145.389V176.287H320.002V145.389H328.833Z" fill="#8478FF"/>
</g>
<g id="Group 26_5">
<path id="Path_15" fill-rule="evenodd" clip-rule="evenodd" d="M350.025 81.7407V176.287H341.195V81.7407H350.025Z" fill="#E7E4FF"/>
<path id="Path_16" fill-rule="evenodd" clip-rule="evenodd" d="M350.025 110.029V176.287H341.195V110.029H350.025Z" fill="#C7C1FF"/>
<path id="Path_17" fill-rule="evenodd" clip-rule="evenodd" d="M350.025 152.46V176.287H341.195V152.46H350.025Z" fill="#8478FF"/>
</g>
<g id="Group 26_6">
<path id="Path_18" fill-rule="evenodd" clip-rule="evenodd" d="M371.218 102.957V176.287H362.387V102.957H371.218Z" fill="#E7E4FF"/>
<path id="Path_19" fill-rule="evenodd" clip-rule="evenodd" d="M371.218 124.172V176.287H362.387V124.172H371.218Z" fill="#C7C1FF"/>
<path id="Path_20" fill-rule="evenodd" clip-rule="evenodd" d="M371.218 156.704V176.287H362.387V156.704H371.218Z" fill="#8478FF"/>
</g>
<g id="Group 26_7">
<path id="Path_21" fill-rule="evenodd" clip-rule="evenodd" d="M392.41 110.029V176.287H383.58V110.029H392.41Z" fill="#E7E4FF"/>
<path id="Path_22" fill-rule="evenodd" clip-rule="evenodd" d="M392.41 124.173V176.287H383.58V124.173H392.41Z" fill="#C7C1FF"/>
<path id="Path_23" fill-rule="evenodd" clip-rule="evenodd" d="M392.41 151.753V176.287H383.58V151.753H392.41Z" fill="#8478FF"/>
</g>
<g id="Group 26_8">
<path id="Path_24" fill-rule="evenodd" clip-rule="evenodd" d="M413.603 95.8848V176.287H404.772V95.8848H413.603Z" fill="#E7E4FF"/>
<path id="Path_25" fill-rule="evenodd" clip-rule="evenodd" d="M413.603 124.173V176.287H404.772V124.173H413.603Z" fill="#C7C1FF"/>
<path id="Path_26" fill-rule="evenodd" clip-rule="evenodd" d="M413.603 158.826V176.287H404.772V158.826H413.603Z" fill="#8478FF"/>
</g>
<g id="Group 26_9">
<path id="Path_27" fill-rule="evenodd" clip-rule="evenodd" d="M434.795 110.029V176.287H425.965V110.029H434.795Z" fill="#E7E4FF"/>
<path id="Path_28" fill-rule="evenodd" clip-rule="evenodd" d="M434.795 124.173V176.287H425.965V124.173H434.795Z" fill="#C7C1FF"/>
<path id="Path_29" fill-rule="evenodd" clip-rule="evenodd" d="M434.795 158.826V176.287H425.965V158.826H434.795Z" fill="#8478FF"/>
</g>
<path id="Rectangle_14" opacity="0.57573" fill-rule="evenodd" clip-rule="evenodd" d="M253.6 62.6465C253.6 61.4748 254.549 60.5249 255.721 60.5249H326.358C327.53 60.5249 328.48 61.4748 328.48 62.6465C328.48 63.8182 327.53 64.7681 326.358 64.7681H255.721C254.549 64.7681 253.6 63.8182 253.6 62.6465Z" fill="#8C81FF"/>
<rect id="Rectangle_15" x="253.6" y="48.5024" width="39.5593" height="4.2432" rx="2.1216" fill="#8478FF"/>
</g>
<g id="Chair4">
<path id="Path_30" fill-rule="evenodd" clip-rule="evenodd" d="M497.444 366.882L508.886 457.29L502.887 457.21L491.444 367.728L497.444 366.882Z" fill="#BFE7FF"/>
<path id="Path_31" fill-rule="evenodd" clip-rule="evenodd" d="M420.02 381.093C414.804 381.093 410.575 376.864 410.575 371.648C410.575 366.431 414.804 362.203 420.02 362.203H457.783C463.504 362.203 468.286 357.849 468.822 352.153L474.86 287.96C475.395 282.263 480.177 277.91 485.899 277.91H509.599C516.058 277.91 521.149 283.408 520.654 289.848L514.43 370.854C513.986 376.632 509.169 381.093 503.375 381.093H420.02Z" fill="#91D6FF"/>
<path id="Combined Shape" fill-rule="evenodd" clip-rule="evenodd" d="M410.577 371.567C410.629 371.568 410.681 371.568 410.733 371.568H493.863C499.656 371.568 504.473 367.108 504.918 361.332L511.138 280.614C511.206 279.734 511.169 278.872 511.039 278.038C510.487 277.954 509.922 277.91 509.345 277.91H485.757C480.036 277.91 475.255 282.262 474.718 287.957L468.685 351.916C468.147 357.611 463.366 361.963 457.646 361.963H419.996C414.793 361.963 410.575 366.181 410.575 371.384C410.575 371.445 410.576 371.506 410.577 371.567Z" fill="#BFE7FF"/>
</g>
<g id="Wom1.4">
<g id="Head">
<path id="Path_32" fill-rule="evenodd" clip-rule="evenodd" d="M484.679 262.34C496.877 259.498 497.68 242.746 488.406 236.934C497.97 216.875 475.853 196.958 460.703 209.241C450.771 204.987 442.518 221.586 451.759 234.477C447.884 256.613 455.771 262.334 469.987 262.577L484.679 262.34Z" fill="#422851"/>
<path id="Path_33" fill-rule="evenodd" clip-rule="evenodd" d="M484.527 258.339C484.527 258.339 478.593 256.945 478.387 247.217C478.181 237.489 478.326 234.168 478.326 234.168L465.255 233.932C465.255 233.932 465.113 244.774 465.111 248.696C465.105 259.228 457.77 258.339 457.77 258.339C457.77 258.339 459.295 266.879 471.139 267.546C480.386 268.067 484.527 258.339 484.527 258.339Z" fill="url(#paint0_linear_515_2035)"/>
<path id="Path_34" fill-rule="evenodd" clip-rule="evenodd" d="M481.373 229.311C487.204 229.085 486.252 237.625 480.195 237.614C480.195 237.614 476.677 249.746 464.463 249.746C454.544 249.746 453.899 235.606 453.809 232.785C453.712 229.777 453.7 219.896 453.7 219.896L481.6 219.883L481.373 229.311Z" fill="url(#paint1_linear_515_2035)"/>
<path id="Path_35" d="M466.818 241.595C466.818 241.595 463.909 244.06 460.54 241.752" stroke="#F77B7B" stroke-width="1.5" stroke-linecap="round"/>
<path id="Path_36" d="M464.898 244.45C463.993 244.868 463.121 244.898 462.343 244.481" stroke="#F49494" stroke-linecap="round"/>
<path id="Path 8" d="M480.779 233.904C480.719 232.534 481.136 231.446 482.533 231.227" stroke="#F77B7B" stroke-linecap="round"/>
<path id="Path_37" fill-rule="evenodd" clip-rule="evenodd" d="M482.295 228.255C482.295 228.255 479.099 232.546 478.452 232.569C477.805 232.592 477.578 226.989 477.578 226.989C473.658 226.689 463.736 224.712 461.304 220.107C459.603 224.17 456.352 225.975 454.215 225.628L453.81 234.261L452.813 216.906H483.077L482.295 228.255Z" fill="#422851"/>
</g>
<g id="LLeg">
<path id="Path_38" fill-rule="evenodd" clip-rule="evenodd" d="M424.807 429.891C424.807 429.891 430.038 440.462 425.75 443.793C421.456 447.125 410.112 453.368 410.112 453.368L440.165 451.478L433.485 428.424L424.807 429.891Z" fill="url(#paint2_linear_515_2035)"/>
<path id="Path_39" fill-rule="evenodd" clip-rule="evenodd" d="M437.258 439.951C435.775 440.124 437.359 445.12 434.148 445.5C430.943 445.88 429.386 441.146 425.749 442.647C422.112 444.148 408.848 451.906 408.326 455.078C407.797 458.249 412.739 459.182 419.516 458.466C426.293 457.749 427.542 455.337 432.63 456.309C437.711 457.28 441.518 455.732 441.35 452.017C441.182 448.303 438.742 439.778 437.258 439.951Z" fill="#222D4E"/>
<path id="Path 14" fill-rule="evenodd" clip-rule="evenodd" d="M424.09 443.417L424.75 444.407C425.074 444.892 424.915 445.55 424.405 445.835L415.44 450.841C415.149 451.003 414.797 451.01 414.5 450.859L413.108 450.153C415.294 448.569 417.081 447.378 419.056 446.21C420.573 445.313 422.252 444.388 424.09 443.417Z" fill="white" fill-opacity="0.540975"/>
<path id="Path_40" fill-rule="evenodd" clip-rule="evenodd" d="M470.08 336.725C460.981 337.131 410.342 348.338 401.141 350.242C391.941 352.145 384.163 362.448 391.178 374.377C399.058 387.768 419.389 425.799 424.326 434.372C426.769 438.616 439.095 436.237 436.199 429.114C430.802 415.838 428.296 382.485 414.535 370.324C414.535 370.324 460.812 378.382 480.801 369.151C495.329 362.442 492.043 335.742 470.08 336.725Z" fill="url(#paint3_linear_515_2035)"/>
</g>
<g id="LArm">
<path id="Path_41" fill-rule="evenodd" clip-rule="evenodd" d="M405.613 282.893C405.613 282.893 405.716 275.486 403.126 271.614C400.536 267.743 400.433 263.632 398.474 263.766C396.514 263.901 398.454 273.458 398.454 273.458C398.454 273.458 395.968 272.508 394.181 271.305C392.395 270.103 386.978 264.176 385.712 265.226C383.566 267.016 387.023 277.111 388.906 279.129C390.795 281.148 401.115 287.787 401.115 287.787L405.613 282.893Z" fill="url(#paint4_linear_515_2035)"/>
<path id="Path_42" fill-rule="evenodd" clip-rule="evenodd" d="M461.526 278.454C457.294 288.276 449.544 306.319 446.349 311.703C442.345 318.444 436.032 321.414 428.64 316.412C420.873 311.156 399.485 290.657 398.858 286.014C398.237 281.37 403.472 275.799 408.208 278.683C412.945 281.568 432.626 297.956 432.626 297.956C432.626 297.956 440.569 277.583 446.959 265.782C452.493 255.571 467.969 263.522 461.526 278.454Z" fill="#6A5EE3"/>
<path id="Path_43" fill-rule="evenodd" clip-rule="evenodd" d="M432.544 297.966C432.544 297.966 430.411 305.206 429.912 304.787C429.413 304.368 430.293 296.074 430.293 296.074L432.544 297.966Z" fill="black" fill-opacity="0.302803"/>
</g>
<g id="Body">
<path id="Path_44" fill-rule="evenodd" clip-rule="evenodd" d="M503.824 266.619C503.824 266.619 493.625 300.79 493.323 307.259C493.021 313.727 501.665 332.739 500.193 337.545C496.8 348.649 453.476 353.431 451.821 338.493C451.049 331.526 452.656 325.273 450.805 317.064C448.96 308.855 441.546 296.657 445.751 285.188C449.956 273.719 448.83 263.108 451.837 261.103C454.845 259.097 461.876 256.968 461.876 256.968C465.295 262.002 476.838 261.929 482.346 256.613C482.346 256.613 496.028 259.268 503.824 266.619Z" fill="#7367F0"/>
<path id="Path_45" fill-rule="evenodd" clip-rule="evenodd" d="M494.684 272.154C487.886 282.949 487.906 301.744 484.255 304.206C480.603 306.668 466.392 304.252 466.392 306.201C466.392 308.151 486.031 326.016 482.807 334.556C481.119 339.028 481.577 343.029 484.181 346.558L485.031 346.373C492.769 344.623 498.99 341.481 500.193 337.545C501.665 332.739 492.024 313.727 492.326 307.258C492.582 301.768 500.689 276.315 503.133 268.747C501.143 265.234 498.327 266.369 494.684 272.154Z" fill="black" fill-opacity="0.199355"/>
</g>
<g id="RArm">
<path id="Path_46" fill-rule="evenodd" clip-rule="evenodd" d="M483.091 300.794C483.091 300.794 474.5 293.187 471.87 292.304C469.24 291.421 453.838 290.36 453.935 292.355C454.045 294.492 462.318 294.369 463.175 295.421C464.032 296.472 464.227 303.658 467.467 304.465C470.701 305.272 480.396 306.663 480.396 306.663L483.091 300.794Z" fill="url(#paint5_linear_515_2035)"/>
<path id="Path_47" fill-rule="evenodd" clip-rule="evenodd" d="M505.946 268.583C514.997 281.364 522.725 300.833 525.691 308.423C528.657 316.013 525.665 327.462 512.622 325.214C499.602 322.972 478.887 310.792 476.595 307.239C474.303 303.686 477.785 297.22 482.17 298.067C486.232 298.85 506.382 307.422 506.382 307.422C506.382 307.422 493.419 284.432 490.253 278.268C484.966 267.976 497.974 257.322 505.946 268.583Z" fill="#6A5EE3"/>
<path id="Path_48" fill-rule="evenodd" clip-rule="evenodd" d="M506.177 307.265C506.177 307.265 512.967 310.64 512.139 309.225C511.311 307.809 503.586 302.836 503.586 302.836L506.177 307.265Z" fill="black" fill-opacity="0.302803"/>
</g>
</g>
<g id="Men3.2">
<g id="LLeg_2">
<path id="Path_49" fill-rule="evenodd" clip-rule="evenodd" d="M173.465 426.194C173.465 426.194 173.329 434.906 178.676 438C184.021 441.095 192.304 446.845 192.304 446.845L160.796 447.913L161.694 426.116L173.465 426.194Z" fill="#F8CFCF"/>
<path id="Path_50" fill-rule="evenodd" clip-rule="evenodd" d="M159.695 435.794L159.183 449.926H166.501L167.003 448.106C167.003 448.106 169.758 447.993 171.35 448.779C173.034 449.611 173.26 450.014 173.26 450.014L196.473 450.063C196.473 450.063 197.619 445.495 190.542 442.192C183.466 438.887 178.314 434.197 177.335 433.717C176.349 433.234 174.361 432.96 172.96 434.097C171.559 435.232 170.451 438.219 167.277 438.313C163.192 438.433 160.846 433.404 159.695 435.794Z" fill="#4B4B4B"/>
<path id="Path 38" d="M179.534 435.25L177.128 437.578" stroke="white" stroke-width="2" stroke-linecap="round"/>
<path id="Path 38_2" d="M183.044 437.014L180.637 439.342" stroke="white" stroke-width="2" stroke-linecap="round"/>
<path id="Path 38_3" d="M186.553 438.779L184.146 441.107" stroke="white" stroke-width="2" stroke-linecap="round"/>
<path id="Path_51" fill-rule="evenodd" clip-rule="evenodd" d="M150.404 238C150.404 238 159.157 334.38 159.429 341.08C159.702 347.779 156.618 359.342 156.678 371.874C156.738 384.407 157.804 428.576 157.804 428.576L177.114 428.984C177.114 428.984 185.229 349.167 185.317 337.198C185.404 325.229 186.148 239.152 186.148 239.152L150.404 238Z" fill="#383838"/>
<path id="Path_52" opacity="0.283552" fill-rule="evenodd" clip-rule="evenodd" d="M164.322 344.08L164.344 344.318C164.635 348.404 162.097 361.846 156.731 384.645L156.678 371.874C156.619 359.566 159.593 348.193 159.441 341.443L159.43 341.08C159.338 338.822 158.283 326.379 156.924 310.873L157.558 313.144C161.281 326.596 163.536 336.908 164.322 344.08Z" fill="white" fill-opacity="0.192499"/>
</g>
<g id="RLeg">
<path id="Path_53" fill-rule="evenodd" clip-rule="evenodd" d="M126.881 424.967L123.157 447.525L136.885 447.457L137.319 424.613L126.881 424.967Z" fill="#F8CFCF"/>
<path id="Path_54" fill-rule="evenodd" clip-rule="evenodd" d="M125.404 434.724C124.06 435.015 123.086 436.183 123.041 437.557L122.93 440.91C120.988 443.064 120.07 449.287 119.974 449.977C119.968 450.02 119.964 450.062 119.968 450.105C120.253 453.155 140.223 453.116 142.097 450.249C142.183 450.119 142.189 449.963 142.163 449.809C141.953 448.539 140.838 442.386 138.692 440.707L138.68 437.385C138.675 436.031 137.765 434.849 136.458 434.498L134.395 433.945C132.388 431.018 129.653 431.121 127.309 434.311L125.404 434.724Z" fill="#4B4B4B"/>
<path id="Path 39" d="M128.089 436.749H133.646" stroke="white" stroke-width="2" stroke-linecap="round"/>
<path id="Path 39_2" d="M128.089 439.393H133.646" stroke="white" stroke-width="2" stroke-linecap="round"/>
<path id="Path 39_3" d="M128.973 442.038H132.763" stroke="white" stroke-width="2" stroke-linecap="round"/>
<path id="Path_55" fill-rule="evenodd" clip-rule="evenodd" d="M133.804 239.265C133.804 239.265 127.671 305.331 127.754 317.983C127.837 330.635 129.642 336.191 127.074 345.267C124.505 354.343 122.315 426.786 122.315 426.786L141.306 428.865C141.306 428.865 153.439 351.346 154.758 340.599C156.077 329.852 172.383 238.353 172.383 238.353L133.804 239.265Z" fill="#2E2E2E"/>
<path id="Path_56" opacity="0.283552" fill-rule="evenodd" clip-rule="evenodd" d="M138.934 284.105L137.775 288.298C134.383 300.674 131.253 313.761 132.072 332.455L132.112 333.309C132.314 337.358 129.738 360.861 124.384 403.817L123.874 406.836C123.349 409.915 122.882 412.542 122.472 414.717L122.588 410.913C123.271 389.915 125.107 352.216 127.074 345.267C129.642 336.191 127.837 330.635 127.754 317.983C127.696 309.126 130.684 274.097 132.482 253.877L133.804 239.265L141.821 239.076L141.84 241.326C141.981 262.099 141.013 276.358 138.934 284.105Z" fill="white" fill-opacity="0.192499"/>
</g>
<g id="LArm_2">
<g id="Group 6">
<path id="Path_57" fill-rule="evenodd" clip-rule="evenodd" d="M227.238 157.566C227.238 157.566 225.653 148.828 226.223 147.058C226.71 145.529 231.312 143.324 231.312 143.324C231.312 143.324 239.316 130.818 241.068 132.091C242.493 133.123 236.899 142.343 236.899 142.343C236.899 142.343 242 147.636 241.929 150.002C241.858 152.368 233.604 159.774 233.604 159.774L227.238 157.566Z" fill="#F8CFCF"/>
<path id="Path_58" fill-rule="evenodd" clip-rule="evenodd" d="M231.484 143.198C231.484 143.198 235.029 142.721 235.593 143.812C236.074 144.742 233.129 147.379 233.129 148.12C233.129 148.861 233.171 154.472 233.408 154.523C233.645 154.574 236.959 145.367 236.252 143.42C235.67 141.821 231.484 143.198 231.484 143.198Z" fill="#F28585"/>
</g>
<path id="Path_59" fill-rule="evenodd" clip-rule="evenodd" d="M184.949 168.684C175.664 160.662 161.721 175.124 177.268 188.57C183.2 193.699 201.832 206.494 206.399 209.307C213.67 213.786 219.645 209.744 222.101 202.698C224.183 196.723 236.642 164.743 235.057 160.046C234.023 156.982 228.474 154.002 225.689 156.412C221.619 159.936 209.169 190.84 209.169 190.84C209.169 190.84 195.507 177.805 184.949 168.684Z" fill="#877BFF"/>
<path id="Path_60" fill-rule="evenodd" clip-rule="evenodd" d="M209.169 190.839C209.169 190.839 213.247 195.786 213.542 195.03C213.836 194.275 210.308 187.918 210.308 187.918L209.169 190.839Z" fill="black" fill-opacity="0.159856"/>
<path id="Path 41" d="M224.608 158.393C227.847 156.893 231.386 158.747 233.337 161.723" stroke="#5386BF" stroke-linecap="round"/>
</g>
<g id="Head_2">
<path id="Path_61" fill-rule="evenodd" clip-rule="evenodd" d="M145.145 159.432C145.145 159.432 150.483 158.203 150.668 149.628C150.854 141.053 150.724 138.126 150.724 138.126L163.379 137.918C163.379 137.918 163.507 147.475 163.509 150.932C163.514 158.457 169.215 160.49 169.215 160.49C169.215 160.49 168.741 168.719 158.087 169.306C149.768 169.765 145.145 159.432 145.145 159.432Z" fill="#F8C5C5"/>
<g id="Head1">
<path id="Path_62" fill-rule="evenodd" clip-rule="evenodd" d="M174.654 128.882L174.372 136.986C176.763 134.23 178.379 130.814 178.857 126.433L174.654 128.882Z" fill="url(#paint6_linear_515_2035)"/>
<path id="Path_63" fill-rule="evenodd" clip-rule="evenodd" d="M149.562 133.791C144.316 133.592 145.172 141.121 150.621 141.11C150.621 141.11 156.477 152.654 165.671 152.684C170.1 152.698 171.546 148.831 172.873 146.116C174.201 143.401 175.175 139.34 175.256 136.854C175.343 134.203 175.355 125.493 175.355 125.493L149.358 125.481L149.562 133.791Z" fill="#F8CFCF"/>
<path id="Path_64" fill-rule="evenodd" clip-rule="evenodd" d="M175.354 129.489H157.071C156.879 132.728 155.782 135.418 152.995 137.402C153.074 142.146 154.694 145.601 157.501 148.023C159.946 141.155 174.898 143.034 173.811 147.515C171.526 156.929 150.111 157.142 151.41 135.476C150.556 134.334 147.5 134.121 146.494 135.263C144.777 130.529 145.51 123.833 150.477 122.864C146.578 112.777 199.6 110.643 175.354 129.489Z" fill="#424242"/>
<path id="Path_65" d="M163.639 147.099C163.639 147.099 166.022 148.815 169.157 146.939" stroke="#CC6969" stroke-linecap="round"/>
<path id="Path 8_2" d="M150.38 138.089C150.434 136.881 150.058 135.922 148.802 135.729" stroke="#DE6767" stroke-linecap="round"/>
</g>
</g>
<g id="Body_2">
<path id="Path_66" fill-rule="evenodd" clip-rule="evenodd" d="M147.493 158L162.595 167.796L169.405 159.887C169.405 159.887 183.752 164.327 186.413 169.518C190.254 177.008 185.194 237.022 187.4 240.643C192.1 248.36 185.85 253.658 165.16 255.604C144.47 257.55 126.115 255.957 129.446 245.658C132.777 235.359 119.923 168.147 131.256 164.445C134.797 163.288 147.493 158 147.493 158Z" fill="#7367F0"/>
<path id="Path_67" fill-rule="evenodd" clip-rule="evenodd" d="M137.3 176.529C138.215 178.144 137.744 183.737 135.886 193.309C134.303 201.464 136.113 209.899 140.89 216.705L141.159 217.081C142.775 219.311 144.264 222.247 145.627 225.889C148.971 234.82 141.259 242.266 147.169 256.239L146.454 256.205C134.858 255.606 127.193 252.623 129.446 245.658C132.177 237.214 124.028 190.51 127.25 171.921C132.83 173.015 136.179 174.551 137.3 176.529Z" fill="black" fill-opacity="0.159856"/>
<path id="Path_68" fill-rule="evenodd" clip-rule="evenodd" d="M147.492 158L161.001 166.795C159.021 169.093 157.959 171.766 157.558 174.709C152.367 170.656 146.97 164.992 145.298 158.902L147.492 158Z" fill="#5E54C7"/>
<path id="Path_69" fill-rule="evenodd" clip-rule="evenodd" d="M163.663 166.566C165.947 168.108 167.769 170.839 169.253 173.944C171.031 170.376 171.712 165.664 171.712 160.639L169.481 159.759L163.663 166.566Z" fill="#5E54C7"/>
<path id="Path_70" fill-rule="evenodd" clip-rule="evenodd" d="M161.001 166.794L161.178 166.893C161.988 167.344 162.997 167.211 163.663 166.566C168.756 185.206 172.338 205.724 173.421 226.576L168.106 235.389L161.889 227.141C162.698 205.469 162.693 184.339 161.001 166.794Z" fill="#CBC6FF"/>
</g>
<g id="RArm_2">
<g id="Example Book Back">
<g id="Group 3">
<path id="Rectangle_16" d="M174.486 213.991C174.632 212.598 175.908 211.608 177.293 211.81L189.599 213.609C190.907 213.8 191.831 214.99 191.693 216.305L189.484 237.318C189.338 238.711 188.062 239.701 186.677 239.499L174.371 237.7C173.063 237.509 172.139 236.319 172.277 235.004L174.486 213.991Z" fill="#6182EC"/>
<path id="Rectangle_17" fill-rule="evenodd" clip-rule="evenodd" d="M175.952 213.567C176.103 212.128 177.456 211.129 178.876 211.407L191.744 213.931L200.548 213.783C202.027 213.759 203.195 215.033 203.04 216.505L200.835 237.486C200.705 238.725 199.671 239.671 198.426 239.692L189.019 239.85L175.721 237.241C174.469 236.996 173.611 235.835 173.745 234.566L175.952 213.567Z" fill="#96EFFA"/>
<path id="Rectangle_18" d="M178.277 218.488C178.374 217.561 179.239 216.913 180.156 217.081L186.061 218.162C186.884 218.312 187.452 219.071 187.364 219.903L187.113 222.297C187.015 223.224 186.15 223.871 185.233 223.704L179.328 222.623C178.505 222.472 177.937 221.714 178.025 220.882L178.277 218.488Z" fill="#74CFDB"/>
<path id="Rectangle_19" d="M190.76 214.632C190.807 214.192 191.2 213.873 191.64 213.92L192.157 213.974C192.596 214.02 192.915 214.414 192.869 214.853L190.32 239.097C190.274 239.536 189.881 239.855 189.441 239.809L188.924 239.755C188.485 239.708 188.166 239.315 188.212 238.875L190.76 214.632Z" fill="#EAEFFF"/>
<path id="Rectangle_20" d="M191.463 214.705C191.509 214.266 191.903 213.947 192.342 213.993L192.859 214.048C193.299 214.094 193.618 214.487 193.571 214.927L191.023 239.171C190.977 239.61 190.584 239.929 190.144 239.883L189.627 239.828C189.188 239.782 188.869 239.389 188.915 238.949L191.463 214.705Z" fill="#7AD2DD"/>
</g>
</g>
<path id="Path_71" fill-rule="evenodd" clip-rule="evenodd" d="M161.293 223.414C161.293 223.414 165.88 222.498 167.757 221.034C169.634 219.57 175.318 218.535 175.318 218.535L173.5 222.34C173.5 222.34 187.432 221.041 187.762 222.406C188.092 223.772 184.063 225.256 184.063 225.256C184.063 225.256 182.076 228.944 180.152 231.082C178.331 233.105 169.288 232.865 166.118 231.602C163.378 230.512 160.4 231.057 160.4 231.057L161.293 223.414Z" fill="#F8CFCF"/>
<path id="Path_72" fill-rule="evenodd" clip-rule="evenodd" d="M124.405 170.239C129.387 159.542 146.446 166.749 142.147 178.209C137.982 189.31 127.893 215.23 127.893 215.23C127.893 215.23 159.865 219.263 162.358 221.144C165.683 223.653 163.627 230.813 160.801 232.088C158.41 233.166 140.648 233.796 123.27 232.435C114.672 231.762 108.314 228.092 107.427 218.559C106.806 211.883 119.606 180.544 124.405 170.239Z" fill="#877BFF"/>
<path id="Path_73" fill-rule="evenodd" clip-rule="evenodd" d="M127.905 215.224C127.905 215.224 125.248 220.243 126.007 220.345C126.767 220.447 130.627 215.591 130.627 215.591L127.905 215.224Z" fill="black" fill-opacity="0.159856"/>
<path id="Path 40" d="M160.107 220.599C161.093 223.727 160.4 227.396 159.033 229.988" stroke="#5386BF" stroke-linecap="round"/>
</g>
</g>
<g id="Chair4_2">
<path id="Path 25" fill-rule="evenodd" clip-rule="evenodd" d="M618.15 366.882L606.707 457.29L612.706 457.21L624.149 367.728L618.15 366.882Z" fill="#91D6FF"/>
<path id="Path_74" fill-rule="evenodd" clip-rule="evenodd" d="M584.851 366.882L573.408 457.29L579.407 457.21L590.85 367.728L584.851 366.882Z" fill="#91D6FF"/>
<path id="Path_75" fill-rule="evenodd" clip-rule="evenodd" d="M657.898 366.882L669.341 457.29L663.341 457.21L651.898 367.728L657.898 366.882Z" fill="#BFE7FF"/>
<path id="Path_76" fill-rule="evenodd" clip-rule="evenodd" d="M580.475 381.093C575.258 381.093 571.029 376.864 571.029 371.648C571.029 366.431 575.258 362.203 580.474 362.203H618.237C623.958 362.203 628.74 357.849 629.276 352.153L635.314 287.96C635.85 282.263 640.632 277.91 646.353 277.91H670.053C676.512 277.91 681.604 283.408 681.109 289.848L674.884 370.854C674.441 376.632 669.623 381.093 663.829 381.093H580.475Z" fill="#91D6FF"/>
<path id="Combined Shape_2" fill-rule="evenodd" clip-rule="evenodd" d="M571.031 371.567C571.083 371.568 571.135 371.568 571.187 371.568H654.317C660.111 371.568 664.927 367.108 665.372 361.332L671.592 280.614C671.66 279.734 671.623 278.872 671.493 278.038C670.942 277.954 670.376 277.91 669.8 277.91H646.211C640.491 277.91 635.709 282.262 635.172 287.957L629.139 351.916C628.602 357.611 623.82 361.963 618.1 361.963H580.45C575.247 361.963 571.029 366.181 571.029 371.384C571.029 371.445 571.03 371.506 571.031 371.567Z" fill="#BFE7FF"/>
</g>
<g id="Wom2.4">
<g id="LLeg_3">
<path id="Path_77" fill-rule="evenodd" clip-rule="evenodd" d="M582.513 428.415C582.513 428.415 587.758 439.01 583.458 442.349C579.151 445.688 567.775 451.946 567.775 451.946L597.915 450.052L591.215 426.944L582.513 428.415Z" fill="url(#paint7_linear_515_2035)"/>
<path id="Path_78" fill-rule="evenodd" clip-rule="evenodd" d="M594.929 438.002C593.981 438.455 595.54 442.712 592.203 442.413C588.867 442.115 586.772 437.714 584.312 438C581.851 438.285 580.289 442.716 575.604 445.803C570.921 448.89 563.976 452.572 564.441 455.675C564.906 458.779 575.835 459.61 581.372 458.582C586.909 457.556 589.493 455.33 593.085 455.507C596.677 455.685 598.935 455.245 600.061 452.938C601.186 450.632 596.023 437.48 594.929 438.002Z" fill="#EEDFE8"/>
<path id="Path_79" fill-rule="evenodd" clip-rule="evenodd" d="M594.662 452.167L594.355 452.149C589.903 451.774 586.849 454.574 582.612 455.363C578.374 456.153 567.199 456.426 565.414 453.775C565.329 453.65 565.251 453.521 565.178 453.391C564.578 454.128 564.296 454.916 564.441 455.836C564.906 458.789 575.836 459.58 581.373 458.602C586.91 457.625 589.495 455.507 593.087 455.676L593.726 455.7C596.949 455.788 599.005 455.294 600.064 453.231C600.321 452.729 600.263 451.648 600.005 450.283C598.502 451.311 596.606 452.226 594.662 452.167Z" fill="#EC7AA5"/>
<path id="Path_80" fill-rule="evenodd" clip-rule="evenodd" d="M627.915 335.031C618.791 335.439 568.005 346.671 558.778 348.58C549.552 350.488 541.751 360.814 548.787 372.771C556.689 386.194 577.079 424.313 582.029 432.906C584.48 437.16 596.841 434.775 593.937 427.636C588.524 414.328 586.011 380.898 572.211 368.709C572.211 368.709 618.62 376.786 638.667 367.534C653.237 360.808 649.941 334.046 627.915 335.031Z" fill="#413C75"/>
</g>
<g id="LArm_3">
<path id="Path_81" fill-rule="evenodd" clip-rule="evenodd" d="M564.263 278.074C564.263 278.074 564.366 272.65 561.769 268.77C559.172 264.89 559.069 260.768 557.103 260.903C555.138 261.038 557.084 270.618 557.084 270.618C557.084 270.618 554.59 269.665 552.799 268.46C551.007 267.255 545.575 261.314 544.305 262.366C542.153 264.16 545.62 274.279 547.508 276.302C549.402 278.326 558.752 283.98 558.752 283.98L586.287 311.719L590.404 296.993L564.263 278.074Z" fill="url(#paint8_linear_515_2035)"/>
<path id="Path_82" fill-rule="evenodd" clip-rule="evenodd" d="M619.337 275.625C615.092 285.47 607.32 303.555 604.116 308.951C600.101 315.708 593.77 318.685 586.356 313.672C584.805 312.623 580.351 308.954 580.351 308.954C581.01 302.532 583.409 297.164 587.545 292.848L590.354 295.172C590.354 295.172 598.32 274.752 604.728 262.923C610.278 252.689 625.798 260.659 619.337 275.625Z" fill="#EA5455"/>
<path id="Path_83" fill-rule="evenodd" clip-rule="evenodd" d="M590.271 295.183C590.271 295.183 588.132 302.439 587.632 302.019C587.132 301.599 588.014 293.286 588.014 293.286L590.271 295.183Z" fill="black" fill-opacity="0.159856"/>
</g>
<g id="Head_3">
<path id="Path_84" fill-rule="evenodd" clip-rule="evenodd" d="M637.682 237.411V246.122L644.079 240.972C644.079 240.972 646.045 232.626 647.644 226.427C648.647 222.539 651.09 209.383 641.254 210C633.197 195.796 609.731 204.587 609.544 221.94C609.319 242.811 609.502 250.937 609.502 250.937C622.772 251.698 630.241 249.78 637.682 237.411Z" fill="#422851"/>
<path id="Path_85" fill-rule="evenodd" clip-rule="evenodd" d="M644.217 253.997C644.217 253.997 638.266 252.6 638.06 242.849C637.853 233.099 637.998 229.77 637.998 229.77L624.89 229.534C624.89 229.534 624.748 240.401 624.745 244.331C624.74 253.889 617.711 254.672 617.711 254.672C617.711 254.672 618.913 262.557 630.79 263.225C640.064 263.748 644.217 253.997 644.217 253.997Z" fill="url(#paint9_linear_515_2035)"/>
<path id="Path_86" fill-rule="evenodd" clip-rule="evenodd" d="M641.054 224.901C646.901 224.675 645.947 233.235 639.873 233.223C639.873 233.223 636.345 245.384 624.096 245.384C614.148 245.384 613.501 231.211 613.41 228.383C613.313 225.369 613.301 215.465 613.301 215.465L641.281 215.452L641.054 224.901Z" fill="url(#paint10_linear_515_2035)"/>
<path id="Path_87" fill-rule="evenodd" clip-rule="evenodd" d="M641.506 224.845C639.083 225.245 639.377 226.849 638.718 226.709C635.372 225.997 621.828 226.936 620.084 219.488C617.914 224.141 617.384 225.285 612.605 226.534V212.899L642.827 210C642.827 210 642.358 224.704 641.506 224.845Z" fill="#422851"/>
<path id="Path_88" d="M626.457 237.214C626.457 237.214 623.54 239.685 620.161 237.372" stroke="#F77B7B" stroke-width="1.5" stroke-linecap="round"/>
<path id="Path_89" d="M624.531 240.075C623.624 240.494 622.75 240.525 621.969 240.107" stroke="#F49494" stroke-linecap="round"/>
<path id="Path 8_3" d="M640.458 229.505C640.398 228.131 640.817 227.041 642.217 226.822" stroke="#F77B7B" stroke-linecap="round"/>
</g>
<g id="Body_3">
<path id="Path_90" fill-rule="evenodd" clip-rule="evenodd" d="M642.888 253C635.42 257.574 626.786 259.251 618.749 254.284C605.633 280.145 602.365 311.002 605.519 345.106C624.645 352.678 640.719 351.189 654.404 342.534L642.888 253Z" fill="#FFE4F4"/>
<g id="RLeg_2">
<path id="Path_91" fill-rule="evenodd" clip-rule="evenodd" d="M549.819 428.84C549.819 428.84 549.977 441.311 539.701 445.973C529.432 450.635 522.116 450.354 523.047 453.959C523.978 457.563 550.708 457.418 553.204 454.599C555.332 452.201 559.958 429.872 561.232 431.579L549.819 428.84Z" fill="url(#paint11_linear_515_2035)"/>
<path id="Path_92" fill-rule="evenodd" clip-rule="evenodd" d="M557.283 446.452C555.708 445.318 554.384 451.853 550.106 450.036C545.829 448.219 549.202 442.213 546.51 441.105C543.818 439.997 538.62 445.953 531.716 447.401C524.812 448.847 519.206 450.114 517.613 452.801C516.241 455.111 517.613 455.849 517.613 455.849C517.613 455.849 524.26 459.168 528.39 459.899C534.389 460.96 551.729 461.667 553.629 459.732C554.795 458.545 558.07 447.019 557.283 446.452Z" fill="#EEDFE8"/>
<path id="Path_93" fill-rule="evenodd" clip-rule="evenodd" d="M517.239 453.073C515.937 455.195 517.991 456.299 518.237 456.422L519.228 456.844C521.108 457.625 525.35 459.302 528.485 459.901C534.233 461 552.032 461.651 553.947 459.761C554.283 459.43 554.699 458.217 555.101 456.641L553.88 456.774C548.002 457.396 534.881 458.523 528.406 456.998C522.658 455.644 519.512 453.416 518.077 452.116C517.728 452.415 517.446 452.733 517.239 453.073Z" fill="#EC7AA5"/>
<path id="Path_94" fill-rule="evenodd" clip-rule="evenodd" d="M656.506 331.176C656.506 331.176 669.771 359.192 651.129 368.812C633.1 378.115 579.128 367.112 579.128 367.112C579.128 367.112 580.092 374.876 579.128 381.802C576.609 399.889 564.63 430.023 562.095 433.809C558.59 439.045 547.913 435.096 547.712 430.737C547.511 426.377 555.761 370.693 557.015 360.074C558.264 349.455 562.204 347.913 573.713 345.01C576.357 344.343 607.623 336.573 610.488 336.799C635.099 338.745 656.506 331.176 656.506 331.176Z" fill="#524D87"/>
<path id="Path_95" fill-rule="evenodd" clip-rule="evenodd" d="M641.964 365.92C624.115 367.92 576.86 363.798 574.962 365.671C573.15 367.46 573.452 398.575 569.388 416.585L570.006 414.884C573.829 404.267 577.798 391.354 579.128 381.802C580.092 374.876 579.128 367.112 579.128 367.112L581.304 367.533C591.564 369.46 635.263 376.999 651.129 368.812C659.725 364.376 663.233 357.006 661.653 346.703C658.931 358.349 652.368 364.755 641.964 365.92Z" fill="white" fill-opacity="0.056108"/>
</g>
<path id="Path_96" fill-rule="evenodd" clip-rule="evenodd" d="M642.561 253.021C630.193 293.537 622.775 350.979 661.404 340.986C640.884 303.205 668.779 286.201 662.456 266.676C660.295 260 642.722 252.497 642.561 253.021Z" fill="#EA5455"/>
<path id="Path_97" fill-rule="evenodd" clip-rule="evenodd" d="M656.512 269.845C642.532 271.955 654.056 296.362 649.441 300.039C644.827 303.716 636.796 304.113 635.929 306.359C634.189 310.874 642.603 322.271 661.171 340.551L661.404 340.986C643.529 308.076 662.392 290.931 663.373 274.151C661.302 270.903 659.014 269.468 656.512 269.845Z" fill="black" fill-opacity="0.159856"/>
<path id="Path_98" fill-rule="evenodd" clip-rule="evenodd" d="M619.404 254C614.684 265.838 612.415 275.127 610.298 292.503C608.533 306.975 609.416 336.84 609.416 336.84L603.584 337.987C603.584 337.987 599.414 291.847 600.808 285.907C603.147 275.938 604.732 270.113 607.822 261C609.523 255.998 619.404 254 619.404 254Z" fill="#EA5455"/>
</g>
<g id="RArm_3">
<path id="Path_99" fill-rule="evenodd" clip-rule="evenodd" d="M639.964 299.017C639.964 299.017 632.348 291.392 629.711 290.507C627.073 289.622 612.626 288.559 612.724 290.559C612.835 292.701 622.131 292.578 622.991 293.632C623.85 294.685 625.046 302.888 628.295 303.697C631.538 304.506 638.261 306.9 638.261 306.9L668.185 322.361L664.997 306.901L639.964 299.017Z" fill="url(#paint12_linear_515_2035)"/>
<path id="Path_100" fill-rule="evenodd" clip-rule="evenodd" d="M662.884 266.731C671.961 279.542 679.711 299.056 682.686 306.664C685.661 314.272 682.66 325.747 669.579 323.494C668.022 323.226 665.488 322.24 665.488 322.24C660.679 315.647 659.835 309.987 661.63 304.947L663.322 305.661C663.322 305.661 650.321 282.617 647.147 276.439C641.844 266.122 654.889 255.444 662.884 266.731Z" fill="#EA5455"/>
<path id="Path_101" fill-rule="evenodd" clip-rule="evenodd" d="M663.322 305.661C663.322 305.661 669.925 308.886 669.095 307.468C668.264 306.049 660.806 301.182 660.806 301.182L663.322 305.661Z" fill="black" fill-opacity="0.159856"/>
</g>
</g>
<g id="Example Ipad1">
<g id="Group 3_2">
<path id="Rectangle_21" fill-rule="evenodd" clip-rule="evenodd" d="M525.371 263.045C525.042 261.724 525.846 260.387 527.166 260.058L550.635 254.206C551.956 253.877 553.293 254.68 553.622 256.001L562.144 290.181C562.474 291.501 561.67 292.839 560.35 293.168L536.88 299.019C535.56 299.349 534.222 298.545 533.893 297.225L525.371 263.045Z" fill="url(#paint13_linear_515_2035)"/>
<path id="Rectangle_22" fill-rule="evenodd" clip-rule="evenodd" d="M526.287 263.595C525.958 262.275 526.761 260.938 528.081 260.608L551.551 254.757C552.871 254.428 554.209 255.231 554.538 256.552L563.06 290.732C563.389 292.052 562.586 293.389 561.265 293.719L537.796 299.57C536.475 299.899 535.138 299.096 534.809 297.775L526.287 263.595Z" fill="#518DF8"/>
<path id="Rectangle_23" d="M527.288 263.896C526.991 262.708 527.715 261.504 528.903 261.208L550.975 255.705C552.163 255.408 553.367 256.132 553.663 257.32L561.368 288.223C561.664 289.411 560.941 290.615 559.753 290.911L537.681 296.414C536.492 296.71 535.289 295.987 534.993 294.799L527.288 263.896Z" fill="white"/>
</g>
</g>
<g id="Group 26_10">
<g id="Group 25">
<path id="Rectangle_24" fill-rule="evenodd" clip-rule="evenodd" d="M322.608 312.871H334.025V457.751H322.608L322.608 312.871Z" fill="#E9E9E9"/>
<path id="Rectangle_25" fill-rule="evenodd" clip-rule="evenodd" d="M210.779 317.634L300.968 317.634V344.542H225.807V457.751H210.779V317.634Z" fill="#D3D3D3"/>
<path id="Rectangle_26" fill-rule="evenodd" clip-rule="evenodd" d="M210.196 317.634H218.196V457.751H210.196L210.196 317.634Z" fill="#DBDBDB"/>
</g>
<g id="Group 25_2">
<path id="Rectangle_27" fill-rule="evenodd" clip-rule="evenodd" d="M602.833 317.634H618.833V457.751H602.833V317.634Z" fill="#E9E9E9"/>
<path id="Rectangle_28" fill-rule="evenodd" clip-rule="evenodd" d="M602.833 312.871H612.833V457.751H602.833L602.833 312.871Z" fill="#DBDBDB"/>
<path id="Rectangle_29" fill-rule="evenodd" clip-rule="evenodd" d="M470.41 317.634L609.41 317.634V344.19H489.118V457.751H470.41V317.634Z" fill="#D3D3D3"/>
<path id="Rectangle_30" fill-rule="evenodd" clip-rule="evenodd" d="M221.993 312.871L470.883 312.871V353.101H221.993L221.993 312.871Z" fill="#DBDBDB"/>
<path id="Rectangle_31" fill-rule="evenodd" clip-rule="evenodd" d="M465.175 317.634H476.591V353.101H465.175V317.634Z" fill="#E9E9E9"/>
<path id="Rectangle_32" fill-rule="evenodd" clip-rule="evenodd" d="M470.446 317.634H479.446V457.751H470.446V317.634Z" fill="#DBDBDB"/>
<path id="Rectangle_33" fill-rule="evenodd" clip-rule="evenodd" d="M471.88 320.015C471.88 316.07 475.078 312.871 479.023 312.871L624.149 312.871C628.094 312.871 631.292 316.07 631.292 320.015C631.292 323.96 628.094 327.158 624.149 327.158H479.023C475.078 327.158 471.88 323.96 471.88 320.015Z" fill="#E9E9E9"/>
<path id="Rectangle_34" fill-rule="evenodd" clip-rule="evenodd" d="M219.139 315.729H468.029V330.016H219.139V315.729Z" fill="#E9E9E9"/>
<path id="Rectangle_35" fill-rule="evenodd" clip-rule="evenodd" d="M198.208 320.015C198.208 316.07 201.407 312.871 205.352 312.871H481.816C485.761 312.871 488.96 316.07 488.96 320.015C488.96 323.96 485.761 327.158 481.816 327.158H205.352C201.407 327.158 198.208 323.96 198.208 320.015Z" fill="#DBDBDB"/>
</g>
</g>
<g id="Men2.8">
<g id="RLeg_3">
<path id="Path_102" fill-rule="evenodd" clip-rule="evenodd" d="M242.791 422.181L234.894 447.824L251.461 448.425C251.461 448.425 249.59 439.653 252.261 431.431C254.403 424.829 256.152 421.535 256.152 421.535L242.791 422.181Z" fill="#92691F"/>
<path id="Path_103" fill-rule="evenodd" clip-rule="evenodd" d="M251.027 441.378C251.027 441.378 257.35 447.238 263.431 449.409C269.512 451.581 271.84 451.605 272.273 452.421L272.352 452.577C273.603 455.159 272.844 458.589 258.983 458.779C255.614 458.825 252.111 456.868 242.813 454.797L242.141 458.417C236.937 458.348 233.901 457.528 233.032 455.956C231.722 453.605 233.948 442.011 235.484 441.791C237.019 441.571 237.323 446.287 241.446 446.39C245.575 446.493 251.027 441.378 251.027 441.378Z" fill="#391B0B"/>
<path id="Combined Shape_3" fill-rule="evenodd" clip-rule="evenodd" d="M263.285 449.356C263.097 449.519 262.871 449.691 262.605 449.854C261.68 450.421 260.288 450.872 258.415 450.445C257.464 450.227 256.404 449.619 255.362 448.852C254.315 448.082 253.265 447.137 252.333 446.222C251.399 445.306 250.58 444.416 249.994 443.756C249.701 443.425 249.466 443.152 249.304 442.961C249.279 442.931 249.255 442.903 249.233 442.877C249.371 442.771 249.502 442.668 249.627 442.569C249.645 442.59 249.665 442.613 249.686 442.638C249.845 442.826 250.078 443.097 250.368 443.424C250.949 444.078 251.76 444.959 252.683 445.865C253.606 446.771 254.637 447.699 255.658 448.45C256.684 449.204 257.677 449.763 258.527 449.957C260.257 450.352 261.517 449.935 262.343 449.428C262.492 449.337 262.626 449.243 262.747 449.15C262.927 449.222 263.106 449.291 263.285 449.356Z" fill="#81411E"/>
<path id="Path_104" fill-rule="evenodd" clip-rule="evenodd" d="M205.034 341.913C205.034 341.913 270.827 347.174 279.893 347.455C288.958 347.735 295.884 360.674 288.864 372.617C280.979 386.024 259.558 424.621 255.371 433.546C251.829 441.09 235.731 437.999 238.628 426.473C242.086 412.68 248.532 381.733 262.3 369.558C262.3 369.558 228.814 381.699 209.952 369.924C199.191 363.207 205.034 341.913 205.034 341.913Z" fill="#7A3636"/>
<path id="Path_105" fill-rule="evenodd" clip-rule="evenodd" d="M288.864 372.617L287.838 374.376C283.848 381.272 277.405 392.923 271.253 404.27L271.577 403.231C276.334 388.092 283.726 370.259 286.886 364.817C287.993 362.91 289.501 360.966 291.41 358.986C292.219 363.14 291.604 367.954 288.864 372.617Z" fill="white" fill-opacity="0.192499"/>
</g>
<g id="LLeg_4">
<path id="Path_106" fill-rule="evenodd" clip-rule="evenodd" d="M314.39 422.48C314.39 422.48 318.789 442.038 324.514 444.131C326.718 444.937 307.622 447.238 307.622 447.238L302.828 428.474L314.39 422.48Z" fill="#92691F"/>
<path id="Path_107" fill-rule="evenodd" clip-rule="evenodd" d="M304.864 440.631L304.544 457.142L311.126 457.192L311.194 453.48C311.194 453.48 316.324 456.556 319.798 457.638C324.47 459.097 342.929 458.333 345.014 456.11C347.1 453.877 347.145 450.324 342.863 449.887C338.582 449.451 331.502 448.151 328.454 445.818C324.767 443.007 323.364 438.547 322.293 438.543C320.653 438.537 320.527 443.784 312.207 443.858C309.041 443.886 304.864 440.631 304.864 440.631Z" fill="#391B0B"/>
<path id="Path_108" fill-rule="evenodd" clip-rule="evenodd" d="M320.59 440.015C320.59 440.015 324.835 446.639 327.358 447.598C329.882 448.548 331.916 447.482 331.916 447.482C331.916 447.482 327.565 445.748 325.884 442.722C322.076 435.867 321.315 439.355 320.59 440.015Z" fill="#81411E"/>
<path id="Path_109" fill-rule="evenodd" clip-rule="evenodd" d="M210.479 347.228C210.479 347.228 210.386 368.248 224.51 373.532C238.634 378.815 284.623 376.827 284.623 376.827C284.623 376.827 299.218 430.526 302.715 435.756C306.212 440.986 322.794 441.527 321.897 429.481C320.994 417.435 314.522 372.713 313.271 362.107C312.025 351.5 308.094 348.961 296.611 347.06C292.576 346.392 294.289 345.322 268.345 344.107C262.772 343.846 253.424 345.932 244.832 346.877C236.241 347.822 210.479 347.228 210.479 347.228Z" fill="#7A3636"/>
<path id="Path_110" fill-rule="evenodd" clip-rule="evenodd" d="M256.381 347.682L256.381 345.241L257.531 345.068C261.713 344.447 265.516 343.975 268.345 344.107L271.327 344.252C294.161 345.407 292.737 346.419 296.611 347.06L297.358 347.186C308.02 349.034 311.879 351.614 313.185 361.419L313.55 364.37C315.279 377.962 321.048 418.158 321.897 429.481C321.965 430.387 321.933 431.222 321.816 431.99L318.454 415.063C313.501 389.966 310.725 375.096 310.126 370.452L310.001 369.487C308.883 361.244 305.954 351.016 296.506 351.683L295.689 351.752C289.037 352.258 276.421 350.982 257.841 347.924L256.381 347.682Z" fill="white" fill-opacity="0.192499"/>
<ellipse id="Oval_5" cx="323.724" cy="363.912" rx="3.77561" ry="6.61391" transform="rotate(13 323.724 363.912)" fill="white" fill-opacity="0.192499"/>
</g>
<g id="RArm_4">
<path id="Path_111" fill-rule="evenodd" clip-rule="evenodd" d="M220.667 319.315C220.667 319.315 236.057 322.878 235.901 324.277C235.749 325.683 228.972 325.898 228.972 325.898C228.972 325.898 241.499 333.987 240.501 335.565C239.504 337.143 231.338 338.921 227.948 337.648C224.558 336.375 215.77 327.113 215.77 327.113L220.667 319.315Z" fill="url(#paint14_linear_515_2035)"/>
<path id="Path_112" fill-rule="evenodd" clip-rule="evenodd" d="M220.806 273.716C215.651 280.079 198.073 299.513 198.073 299.513C198.073 299.513 215.651 312.033 220.077 314.681C227.336 319.022 219.954 330.537 214.632 329.258C207.418 327.52 189.21 314.959 180.655 309.876C172.099 304.792 175.373 296.585 181.703 289.095C186.565 283.343 197.136 271.557 204.573 261.211C211.972 250.917 230.81 261.37 220.806 273.716Z" fill="#EA5455"/>
<path id="Path 15" fill-rule="evenodd" clip-rule="evenodd" d="M198.073 299.513C198.073 299.513 193.124 304.281 193.639 304.65C194.153 305.019 200.116 300.979 200.116 300.979L198.073 299.513Z" fill="black" fill-opacity="0.159856"/>
</g>
<g id="Head_4">
<path id="Path_113" fill-rule="evenodd" clip-rule="evenodd" d="M251.498 227.007C255.821 227.481 255.515 235.089 250.252 235.486C249.177 242.821 245.341 246.315 240.665 246.72L240.924 257.813L220.239 257.801C220.239 257.801 226.063 249.964 225.773 239.235C225.483 228.506 225.968 218.427 225.968 218.427L252.76 218.908L251.498 227.007Z" fill="url(#paint15_linear_515_2035)"/>
<path id="Path_114" fill-rule="evenodd" clip-rule="evenodd" d="M243.037 206.313C258.973 210.336 252.398 227.328 252.398 227.328C247.583 226.671 242.95 232.514 241.192 238.244C236.111 243.467 229.53 243.458 225.154 240.416C225.154 240.416 219.133 221.793 221.103 215.592C223.072 209.391 228.511 202.647 243.037 206.313Z" fill="#2C272E"/>
</g>
<g id="Body_4">
<path id="Path_115" fill-rule="evenodd" clip-rule="evenodd" d="M205.361 260.288C203.93 262.724 202.905 272.536 205.361 311.408C206.633 331.537 201.223 351.376 202.621 360.109C204.019 368.843 213.627 369.886 213.627 369.886L219.23 351.657L221.866 369.886C221.866 369.886 261.6 366.171 265.082 357.125C268.571 348.06 264.19 326.75 263.147 306.683C262.101 286.537 262.886 265.858 260.96 262.724C257.117 256.468 247.225 253.546 241.086 252.61C233.295 251.423 223.237 251.377 217.258 253.273C211.279 255.168 206.792 257.852 205.361 260.288Z" fill="#EA5455"/>
<path id="Path_116" fill-rule="evenodd" clip-rule="evenodd" d="M245.79 274.131C248.926 297.265 253.119 313.498 258.369 322.83C260.54 326.688 262.746 328.279 264.985 327.602L264.453 322.475C263.923 317.287 263.42 311.942 263.147 306.683C262.957 303.016 262.827 299.331 262.73 295.737L245.79 274.131Z" fill="black" fill-opacity="0.159856"/>
<path id="Path_117" fill-rule="evenodd" clip-rule="evenodd" d="M217.258 253.273C216.895 253.388 216.545 253.507 216.206 253.631C224.79 257.374 238.965 256.874 246.671 253.825C244.664 253.258 242.739 252.862 241.086 252.61C233.295 251.423 223.237 251.377 217.258 253.273Z" fill="#E5AA41"/>
</g>
<g id="LArm_4">
<path id="Path_118" fill-rule="evenodd" clip-rule="evenodd" d="M322.558 294.168C322.558 294.168 335.343 285.633 337.602 283.919C339.854 282.212 342.681 269.268 340.929 267.452C340.083 266.573 333.687 272.486 332.546 273.278C331.412 274.062 325.613 277.556 325.613 277.556C325.613 277.556 327.254 267.648 325.841 266.849C324.796 266.268 322.706 268.818 322.426 271.513C322.146 274.207 319.239 277.723 318.864 281.812C318.694 283.599 316.935 287.013 316.935 287.013L322.558 294.168Z" fill="url(#paint16_linear_515_2035)"/>
<path id="Path_119" fill-rule="evenodd" clip-rule="evenodd" d="M246.418 277.801C251.317 287.98 259.638 302.863 264.207 311.589C269.615 321.915 276.059 326.29 289.056 318.628C299.941 312.211 315.637 301.89 323.747 296.281C331.294 291.061 322.373 278.175 315.244 282.529C305.785 288.297 281.598 299.728 281.598 299.728C281.598 299.728 269.151 276.991 263.983 266.075C257.408 252.201 236.938 258.101 246.418 277.801Z" fill="#EA5455"/>
<path id="Path_120" fill-rule="evenodd" clip-rule="evenodd" d="M281.597 299.728C281.597 299.728 283.873 307.744 284.411 307.427C284.948 307.111 284.033 298.579 284.033 298.579L281.597 299.728Z" fill="black" fill-opacity="0.159856"/>
</g>
</g>
<g id="Chair8">
<path id="Path_121" fill-rule="evenodd" clip-rule="evenodd" d="M231.171 378.221L219.728 459.18L225.728 459.1L237.171 379.067L231.171 378.221Z" fill="#BFE7FF"/>
<path id="Path_122" fill-rule="evenodd" clip-rule="evenodd" d="M269.334 378.221L280.777 459.18L274.777 459.1L263.334 379.067L269.334 378.221Z" fill="#91D6FF"/>
<path id="Path_123" fill-rule="evenodd" clip-rule="evenodd" d="M196.286 378.221L184.844 459.18L190.843 459.1L202.286 379.067L196.286 378.221Z" fill="#BFE7FF"/>
<path id="Path_124" fill-rule="evenodd" clip-rule="evenodd" d="M273.71 382.983C278.926 382.983 283.155 378.754 283.155 373.538C283.155 368.321 278.926 364.093 273.71 364.093H235.947C230.226 364.093 225.444 359.739 224.908 354.043L218.87 289.85C218.335 284.153 213.553 279.8 207.831 279.8H184.131C177.672 279.8 172.581 285.298 173.075 291.738L179.3 372.744C179.744 378.522 184.561 382.983 190.355 382.983H273.71Z" fill="#BFE7FF"/>
<path id="Combined Shape_4" fill-rule="evenodd" clip-rule="evenodd" d="M283.153 373.457C283.101 373.458 283.049 373.458 282.997 373.458H231.014C225.221 373.458 220.404 368.998 219.959 363.222L213.651 281.363C216.595 283.121 218.669 286.21 219.012 289.847L225.045 353.806C225.583 359.501 230.364 363.853 236.084 363.853H273.734C278.937 363.853 283.155 368.071 283.155 373.274C283.155 373.335 283.154 373.396 283.153 373.457Z" fill="#91D6FF"/>
</g>
<g id="Front Laptop3">
<path id="Rectangle_36" fill-rule="evenodd" clip-rule="evenodd" d="M497.385 311.543C497.385 311.13 497.051 310.796 496.639 310.796H412.502C412.09 310.796 411.756 311.13 411.756 311.543V312.639C411.756 313.052 412.09 313.386 412.502 313.386H496.639C497.051 313.386 497.385 313.052 497.385 312.639V311.543Z" fill="url(#paint17_linear_515_2035)"/>
<path id="Rectangle_37" fill-rule="evenodd" clip-rule="evenodd" d="M497.393 311.543C497.393 311.13 497.059 310.796 496.647 310.796H464.32C463.907 310.796 463.573 311.13 463.573 311.543V312.639C463.573 313.052 463.907 313.386 464.32 313.386H496.647C497.059 313.386 497.393 313.052 497.393 312.639V311.543Z" fill="#518DF8"/>
<path id="Rectangle_38" fill-rule="evenodd" clip-rule="evenodd" d="M503.497 275.353C503.772 273.201 502.095 271.296 499.926 271.296H444.114C442.303 271.296 440.774 272.642 440.544 274.439L436.393 306.852C436.117 309.004 437.794 310.909 439.963 310.909H495.775C497.586 310.909 499.116 309.563 499.346 307.766L503.497 275.353Z" fill="#518DF8"/>
<path id="Rectangle_39" fill-rule="evenodd" clip-rule="evenodd" d="M501.798 275.353C502.073 273.201 500.396 271.296 498.227 271.296H443.595C441.784 271.296 440.254 272.642 440.024 274.439L435.873 306.852C435.598 309.004 437.274 310.909 439.444 310.909H494.076C495.887 310.909 497.417 309.563 497.647 307.766L501.798 275.353Z" fill="url(#paint18_linear_515_2035)"/>
<path id="Rectangle_40" d="M499.849 276.821C500.097 274.884 498.588 273.17 496.635 273.17H444.877C443.246 273.17 441.87 274.381 441.663 275.999L437.923 305.236C437.675 307.173 439.184 308.887 441.136 308.887H492.895C494.525 308.887 495.902 307.675 496.109 306.058L499.849 276.821Z" fill="white"/>
</g>
<g id="Wom3.8">
<g id="RArm_5">
<path id="Path_125" fill-rule="evenodd" clip-rule="evenodd" d="M363.048 321.22C363.048 321.22 376.649 324.393 376.511 325.638C376.376 326.89 370.388 327.082 370.388 327.082C370.388 327.082 381.458 334.285 380.576 335.69C379.695 337.095 372.478 338.678 369.483 337.545C366.487 336.411 358.721 328.163 358.721 328.163L336.934 316.463L344.217 306.858L363.048 321.22Z" fill="url(#paint19_linear_515_2035)"/>
<path id="Path_126" fill-rule="evenodd" clip-rule="evenodd" d="M363.171 280.617C358.616 286.282 343.082 303.587 343.082 303.587L346.148 305.888L336.176 317.985C336.176 317.985 329.808 314.083 327.689 312.815C320.129 308.288 323.021 300.98 328.615 294.311C332.912 289.189 342.253 278.695 348.826 269.482C355.365 260.316 372.012 269.623 363.171 280.617Z" fill="#FFB66F"/>
<path id="Path 15_2" fill-rule="evenodd" clip-rule="evenodd" d="M343.082 303.587C343.082 303.587 338.709 307.833 339.163 308.162C339.618 308.491 344.887 304.893 344.887 304.893L343.082 303.587Z" fill="black" fill-opacity="0.159856"/>
<path id="Path 76" fill-rule="evenodd" clip-rule="evenodd" d="M345.531 304.623L332.533 317.491L339.032 321.744L347.96 306.459L345.531 304.623Z" fill="#FFEDC2"/>
</g>
<g id="LLeg_5">
<path id="Path_127" fill-rule="evenodd" clip-rule="evenodd" d="M387.038 420.233L380.007 442.882L391.825 443.413C391.825 443.413 390.16 435.665 392.538 428.403C394.445 422.572 396.001 419.663 396.001 419.663L387.038 420.233Z" fill="url(#paint20_linear_515_2035)"/>
<path id="Path_128" fill-rule="evenodd" clip-rule="evenodd" d="M391.922 436.78C391.922 436.78 391.675 442.546 393.689 444.369C395.702 446.19 406.382 452.917 407.277 454.272C408.171 455.628 406.858 457.283 406.858 457.283C406.858 457.283 395.955 458.993 390.811 456.354C387.097 454.448 384.444 452.891 384.444 452.891L383.305 455.82L377.351 454.965C377.351 454.965 375.516 450.316 376.304 448.004C377.092 445.692 381.161 434.889 381.161 434.889C381.161 434.889 391.922 436.78 391.922 436.78Z" fill="#391B0B"/>
<path id="Path_129" fill-rule="evenodd" clip-rule="evenodd" d="M352.652 343.031C361.54 343.898 405.325 354.326 414.34 356.178C423.355 358.03 430.976 368.051 424.102 379.654C416.381 392.679 394.553 433.158 394.553 433.158C394.419 433.191 394.287 433.249 394.15 433.249C389.711 433.249 385.752 432.641 381.942 429.985C381.942 429.985 387.732 387.54 401.216 375.712C401.216 375.712 366.398 388.231 348.985 374.571C338.714 366.513 342.856 342.075 352.652 343.031Z" fill="#33373E"/>
<path id="Combined Shape_5" fill-rule="evenodd" clip-rule="evenodd" d="M420.978 359.255L418.586 389.278C418.783 388.928 418.978 388.582 419.171 388.24L421.449 359.636C421.294 359.506 421.137 359.379 420.978 359.255Z" fill="white" fill-opacity="0.192499"/>
</g>
<g id="RLeg_4">
<path id="Path_130" fill-rule="evenodd" clip-rule="evenodd" d="M452.499 418.444C452.499 418.444 456.376 435.714 461.421 437.562C463.364 438.273 449.435 440.305 449.435 440.305L445.21 423.737L452.499 418.444Z" fill="url(#paint21_linear_515_2035)"/>
<path id="Path_131" fill-rule="evenodd" clip-rule="evenodd" d="M447.66 435.544L451.339 457.165L457.715 456.157L456.927 450.811C456.927 450.811 459.724 455.468 462.843 455.267C465.971 455.065 481.613 452.707 481.613 452.707C481.613 452.707 481.965 447.529 474.769 446.346C468.785 445.363 458.58 433.809 458.58 433.809L447.66 435.544Z" fill="#391B0B"/>
<path id="Path_132" fill-rule="evenodd" clip-rule="evenodd" d="M360.109 340.171C360.109 340.171 347.277 367.35 365.31 376.682C382.749 385.707 429.153 374.063 429.153 374.063C429.153 374.063 428.22 381.596 429.153 388.314C431.589 405.861 443.571 427.449 444.661 431.007C445.21 432.798 458.574 430.151 458.574 428.026C458.574 425.901 451.756 377.537 450.542 367.236C449.335 356.934 445.523 355.438 434.391 352.622C431.833 351.975 398.687 344.436 395.916 344.656C372.11 346.544 360.109 340.171 360.109 340.171Z" fill="#42474F"/>
<path id="Path_133" fill-rule="evenodd" clip-rule="evenodd" d="M395.916 344.656C398.687 344.436 431.833 351.975 434.391 352.621L436.219 353.091C445.714 355.575 449.233 357.428 450.456 366.547L450.785 369.165C451.787 376.804 454.495 394.769 456.638 409.725C454.22 404.228 452.219 398.129 450.635 391.427C446.943 375.807 447.733 362.982 446.742 360.736C445.75 358.49 397.262 351.32 388.931 349.84C385.304 349.196 383.259 347.599 382.794 345.048C386.82 345.161 391.194 345.031 395.916 344.656Z" fill="white" fill-opacity="0.192499"/>
</g>
<g id="Head_5">
<path id="Path_134" fill-rule="evenodd" clip-rule="evenodd" d="M389.607 235.877C393.459 236.299 393.185 243.08 388.496 243.434C387.538 249.97 384.12 253.084 379.953 253.444L380.184 263.331L361.752 263.32C361.752 263.32 366.942 256.336 366.683 246.775C366.425 237.213 366.857 228.231 366.857 228.231L390.731 228.66L389.607 235.877Z" fill="url(#paint22_linear_515_2035)"/>
<path id="Path_135" fill-rule="evenodd" clip-rule="evenodd" d="M390.445 236.386C385.958 234.609 382.644 242.257 379.211 247.573C375.779 252.889 366.885 251.986 365.659 247.573C361.018 237.909 357.019 224.77 362.435 223.691C363.197 209.723 399.711 213.021 390.445 236.386Z" fill="#9E5229"/>
<path id="Combined Shape_6" fill-rule="evenodd" clip-rule="evenodd" d="M365.421 218.156H373.334H373.445L373.52 218.24C380.549 226.095 382.123 237.664 378.838 248.099C378.584 248.427 378.308 248.727 378.013 249.001C381.691 238.471 380.282 226.618 373.222 218.656H364.833C365.02 218.483 365.216 218.316 365.421 218.156Z" fill="black" fill-opacity="0.199355"/>
<ellipse id="Oval_6" rx="4.4008" ry="4.40615" transform="matrix(-1 0 0 1 370.271 218.406)" fill="#FB9934"/>
</g>
<g id="Body_5">
<path id="Path_136" fill-rule="evenodd" clip-rule="evenodd" d="M394.113 265.001C398.194 270.987 404.994 291.303 405.38 295.873C405.815 301.145 400.155 309.544 400.062 317.176C399.979 324.809 404.283 343.915 402.99 346.062C401.707 348.209 359.094 360.621 356.693 359.601C354.293 358.581 346.005 347.581 347.899 343.111C349.803 338.64 357.669 328.5 356.769 322.408C355.879 316.318 350.711 293.836 348.145 286.184C345.589 278.532 346.442 270.499 351.212 267.206C353.572 265.577 359.87 260.948 371.086 260.97C382.302 260.991 393.796 264.537 394.113 265.001Z" fill="#FF9F43"/>
<path id="Path_137" fill-rule="evenodd" clip-rule="evenodd" d="M403.261 290.966L383.706 276.916L383.712 279.483C383.784 295.33 384.782 303.725 401.379 329.695L400.995 327.048C400.454 323.206 400.035 319.608 400.062 317.176C400.12 312.361 402.395 307.241 403.957 302.793L403.261 290.966Z" fill="black" fill-opacity="0.159856"/>
<path id="Path 68" fill-rule="evenodd" clip-rule="evenodd" d="M381.449 260.532C381.449 260.532 381.921 263.106 379.854 263.106C377.788 263.106 363.928 263.562 362.051 262.748C360.174 261.934 360.737 260.532 360.737 260.532H381.449Z" fill="#FFF6E1"/>
</g>
<g id="LArm_5">
<path id="Path_138" fill-rule="evenodd" clip-rule="evenodd" d="M450.528 295.86C450.528 295.86 461.815 288.328 463.809 286.815C465.798 285.309 468.293 273.885 466.746 272.282C465.999 271.507 460.353 276.725 459.345 277.424C458.345 278.116 453.225 281.2 453.225 281.2C453.225 281.2 454.674 272.456 453.426 271.75C452.504 271.238 450.658 273.488 450.411 275.866C450.164 278.244 447.598 281.347 447.267 284.956C447.117 286.533 446.533 288.576 446.533 288.576L415.218 302.025L418.494 316.648L450.528 295.86Z" fill="url(#paint23_linear_515_2035)"/>
<path id="Path_139" fill-rule="evenodd" clip-rule="evenodd" d="M383.31 281.415C387.635 290.4 394.981 303.534 399.015 311.235C403.789 320.349 409.478 324.21 420.952 317.447C422.295 316.656 425.2 314.892 425.2 314.892L418.096 299.12L414.368 300.767C414.368 300.767 403.379 280.701 398.817 271.067C393.012 258.822 374.941 264.029 383.31 281.415Z" fill="#FFB66F"/>
<path id="Path_140" fill-rule="evenodd" clip-rule="evenodd" d="M414.367 300.768C414.367 300.768 416.377 307.842 416.851 307.563C417.325 307.283 416.518 299.753 416.518 299.753L414.367 300.768Z" fill="black" fill-opacity="0.159856"/>
<path id="Path 75" fill-rule="evenodd" clip-rule="evenodd" d="M417.995 298.423L422.943 318.058L430.305 314.077L420.645 296.894L417.995 298.423Z" fill="#FFEDC2"/>
</g>
<path id="Path_141" fill-rule="evenodd" clip-rule="evenodd" d="M370.743 215.15C370.743 215.15 366.595 209.84 361.804 211.233C357.014 212.626 352.681 221.165 354.738 229.191C356.785 237.219 355.097 241.797 352.613 247.207C345.942 261.76 369.04 271 369.04 271C369.04 271 367.238 260.217 370.743 253.705C374.353 246.999 376.404 238.399 376.404 233.137C376.404 223.986 370.743 215.15 370.743 215.15Z" fill="#9E5229"/>
</g>
<g id="Chair8_2">
<path id="Path_142" fill-rule="evenodd" clip-rule="evenodd" d="M370.061 378.221L381.504 459.18L375.505 459.1L364.062 379.067L370.061 378.221Z" fill="#91D6FF"/>
<path id="Path_143" fill-rule="evenodd" clip-rule="evenodd" d="M403.361 378.221L414.803 459.18L408.804 459.1L397.361 379.067L403.361 378.221Z" fill="#91D6FF"/>
<path id="Path_144" fill-rule="evenodd" clip-rule="evenodd" d="M330.313 378.221L318.87 459.18L324.87 459.1L336.313 379.067L330.313 378.221Z" fill="#BFE7FF"/>
<path id="Path_145" fill-rule="evenodd" clip-rule="evenodd" d="M407.737 382.983C412.953 382.983 417.182 378.754 417.182 373.538C417.182 368.321 412.953 364.093 407.737 364.093H369.974C364.253 364.093 359.471 359.739 358.935 354.043L352.897 289.85C352.361 284.153 347.579 279.8 341.858 279.8H318.158C311.699 279.8 306.608 285.298 307.102 291.738L313.327 372.744C313.771 378.522 318.588 382.983 324.382 382.983H407.737Z" fill="#BFE7FF"/>
<path id="Combined Shape_7" fill-rule="evenodd" clip-rule="evenodd" d="M417.18 373.457C417.128 373.458 417.076 373.458 417.024 373.458H365.041C359.248 373.458 354.431 368.998 353.986 363.222L347.678 281.363C350.622 283.121 352.696 286.21 353.039 289.847L359.072 353.806C359.609 359.501 364.391 363.853 370.111 363.853H407.761C412.964 363.853 417.182 368.071 417.182 373.274C417.182 373.335 417.181 373.396 417.18 373.457Z" fill="#91D6FF"/>
</g>
</g>
</g>
<defs>
<filter id="filter0_dd_515_2035" x="9.25928" y="0.00830078" width="191.801" height="107.428" filterUnits="userSpaceOnUse" color-interpolation-filters="sRGB">
<feFlood flood-opacity="0" result="BackgroundImageFix"/>
<feColorMatrix in="SourceAlpha" type="matrix" values="0 0 0 0 0 0 0 0 0 0 0 0 0 0 0 0 0 0 127 0" result="hardAlpha"/>
<feOffset dx="8" dy="9"/>
<feGaussianBlur stdDeviation="14"/>
<feColorMatrix type="matrix" values="0 0 0 0 0.0755213 0 0 0 0 0.582569 0 0 0 0 0.878793 0 0 0 0.229458 0"/>
<feBlend mode="normal" in2="BackgroundImageFix" result="effect1_dropShadow_515_2035"/>
<feColorMatrix in="SourceAlpha" type="matrix" values="0 0 0 0 0 0 0 0 0 0 0 0 0 0 0 0 0 0 127 0" result="hardAlpha"/>
<feOffset dy="2"/>
<feGaussianBlur stdDeviation="7.5"/>
<feColorMatrix type="matrix" values="0 0 0 0 0.503982 0 0 0 0 0.700178 0 0 0 0 1 0 0 0 0.233829 0"/>
<feBlend mode="normal" in2="effect1_dropShadow_515_2035" result="effect2_dropShadow_515_2035"/>
<feBlend mode="normal" in="SourceGraphic" in2="effect2_dropShadow_515_2035" result="shape"/>
</filter>
<filter id="filter1_dd_515_2035" x="9.25928" y="58.5918" width="224.949" height="198.68" filterUnits="userSpaceOnUse" color-interpolation-filters="sRGB">
<feFlood flood-opacity="0" result="BackgroundImageFix"/>
<feColorMatrix in="SourceAlpha" type="matrix" values="0 0 0 0 0 0 0 0 0 0 0 0 0 0 0 0 0 0 127 0" result="hardAlpha"/>
<feOffset dx="8" dy="9"/>
<feGaussianBlur stdDeviation="14"/>
<feColorMatrix type="matrix" values="0 0 0 0 0.0755213 0 0 0 0 0.582569 0 0 0 0 0.878793 0 0 0 0.229458 0"/>
<feBlend mode="normal" in2="BackgroundImageFix" result="effect1_dropShadow_515_2035"/>
<feColorMatrix in="SourceAlpha" type="matrix" values="0 0 0 0 0 0 0 0 0 0 0 0 0 0 0 0 0 0 127 0" result="hardAlpha"/>
<feOffset dy="2"/>
<feGaussianBlur stdDeviation="7.5"/>
<feColorMatrix type="matrix" values="0 0 0 0 0.503982 0 0 0 0 0.700178 0 0 0 0 1 0 0 0 0.233829 0"/>
<feBlend mode="normal" in2="effect1_dropShadow_515_2035" result="effect2_dropShadow_515_2035"/>
<feBlend mode="normal" in="SourceGraphic" in2="effect2_dropShadow_515_2035" result="shape"/>
</filter>
<filter id="filter2_d_515_2035" x="34.9092" y="119.89" width="161.424" height="97.3125" filterUnits="userSpaceOnUse" color-interpolation-filters="sRGB">
<feFlood flood-opacity="0" result="BackgroundImageFix"/>
<feColorMatrix in="SourceAlpha" type="matrix" values="0 0 0 0 0 0 0 0 0 0 0 0 0 0 0 0 0 0 127 0" result="hardAlpha"/>
<feOffset dy="13"/>
<feGaussianBlur stdDeviation="7.5"/>
<feColorMatrix type="matrix" values="0 0 0 0 0 0 0 0 0 0 0 0 0 0 0 0 0 0 0.144395 0"/>
<feBlend mode="normal" in2="BackgroundImageFix" result="effect1_dropShadow_515_2035"/>
<feBlend mode="normal" in="SourceGraphic" in2="effect1_dropShadow_515_2035" result="shape"/>
</filter>
<filter id="filter3_d_515_2035" x="214.636" y="22.2368" width="272.181" height="197.485" filterUnits="userSpaceOnUse" color-interpolation-filters="sRGB">
<feFlood flood-opacity="0" result="BackgroundImageFix"/>
<feColorMatrix in="SourceAlpha" type="matrix" values="0 0 0 0 0 0 0 0 0 0 0 0 0 0 0 0 0 0 127 0" result="hardAlpha"/>
<feOffset dx="6" dy="6"/>
<feGaussianBlur stdDeviation="8"/>
<feColorMatrix type="matrix" values="0 0 0 0 0.70188 0 0 0 0 0.70188 0 0 0 0 0.70188 0 0 0 0.208725 0"/>
<feBlend mode="normal" in2="BackgroundImageFix" result="effect1_dropShadow_515_2035"/>
<feBlend mode="normal" in="SourceGraphic" in2="effect1_dropShadow_515_2035" result="shape"/>
</filter>
<linearGradient id="paint0_linear_515_2035" x1="493.237" y1="228.938" x2="482.157" y2="278.416" gradientUnits="userSpaceOnUse">
<stop stop-color="#FFAFAF"/>
<stop offset="1" stop-color="#F07777"/>
</linearGradient>
<linearGradient id="paint1_linear_515_2035" x1="492.376" y1="219.545" x2="485.727" y2="252.064" gradientUnits="userSpaceOnUse">
<stop stop-color="#FDC6C6"/>
<stop offset="1" stop-color="#FAB2B2"/>
</linearGradient>
<linearGradient id="paint2_linear_515_2035" x1="445.366" y1="422.352" x2="443.772" y2="452.132" gradientUnits="userSpaceOnUse">
<stop stop-color="#FDC6C6"/>
<stop offset="1" stop-color="#FAB2B2"/>
</linearGradient>
<linearGradient id="paint3_linear_515_2035" x1="414.295" y1="460.704" x2="366.22" y2="368.426" gradientUnits="userSpaceOnUse">
<stop stop-color="#28324F"/>
<stop offset="1" stop-color="#222735"/>
</linearGradient>
<linearGradient id="paint4_linear_515_2035" x1="409.175" y1="257.915" x2="407.022" y2="286.517" gradientUnits="userSpaceOnUse">
<stop stop-color="#FDC6C6"/>
<stop offset="1" stop-color="#FAB2B2"/>
</linearGradient>
<linearGradient id="paint5_linear_515_2035" x1="488.136" y1="287.459" x2="487.505" y2="305.929" gradientUnits="userSpaceOnUse">
<stop stop-color="#FDC6C6"/>
<stop offset="1" stop-color="#FAB2B2"/>
</linearGradient>
<linearGradient id="paint6_linear_515_2035" x1="180.739" y1="119.269" x2="170.851" y2="120.194" gradientUnits="userSpaceOnUse">
<stop stop-color="#4D63A0"/>
<stop offset="1" stop-color="#222735"/>
</linearGradient>
<linearGradient id="paint7_linear_515_2035" x1="603.13" y1="420.858" x2="601.534" y2="450.708" gradientUnits="userSpaceOnUse">
<stop stop-color="#FDC6C6"/>
<stop offset="1" stop-color="#FAB2B2"/>
</linearGradient>
<linearGradient id="paint8_linear_515_2035" x1="598.498" y1="248.529" x2="594.258" y2="309.079" gradientUnits="userSpaceOnUse">
<stop stop-color="#FDC6C6"/>
<stop offset="1" stop-color="#FAB2B2"/>
</linearGradient>
<linearGradient id="paint9_linear_515_2035" x1="652.845" y1="224.528" x2="641.621" y2="274.064" gradientUnits="userSpaceOnUse">
<stop stop-color="#FFAFAF"/>
<stop offset="1" stop-color="#F07777"/>
</linearGradient>
<linearGradient id="paint10_linear_515_2035" x1="652.088" y1="215.112" x2="645.428" y2="247.709" gradientUnits="userSpaceOnUse">
<stop stop-color="#FDC6C6"/>
<stop offset="1" stop-color="#FAB2B2"/>
</linearGradient>
<linearGradient id="paint11_linear_515_2035" x1="567.854" y1="422.06" x2="566.293" y2="455.333" gradientUnits="userSpaceOnUse">
<stop stop-color="#FDC6C6"/>
<stop offset="1" stop-color="#FAB2B2"/>
</linearGradient>
<linearGradient id="paint12_linear_515_2035" x1="677.782" y1="281.401" x2="676.275" y2="320.785" gradientUnits="userSpaceOnUse">
<stop stop-color="#FDC6C6"/>
<stop offset="1" stop-color="#FAB2B2"/>
</linearGradient>
<linearGradient id="paint13_linear_515_2035" x1="524.625" y1="251.275" x2="536.55" y2="299.102" gradientUnits="userSpaceOnUse">
<stop stop-color="#9FF6EC"/>
<stop offset="1" stop-color="#7D9DFF"/>
</linearGradient>
<linearGradient id="paint14_linear_515_2035" x1="230.353" y1="307.304" x2="242.103" y2="333.424" gradientUnits="userSpaceOnUse">
<stop stop-color="#FDC6C6"/>
<stop offset="1" stop-color="#A47070"/>
</linearGradient>
<linearGradient id="paint15_linear_515_2035" x1="260.421" y1="208.839" x2="256.945" y2="255.74" gradientUnits="userSpaceOnUse">
<stop stop-color="#FDC6C6"/>
<stop offset="1" stop-color="#A47070"/>
</linearGradient>
<linearGradient id="paint16_linear_515_2035" x1="345.722" y1="260.095" x2="343.372" y2="292.735" gradientUnits="userSpaceOnUse">
<stop stop-color="#FDC6C6"/>
<stop offset="1" stop-color="#A47070"/>
</linearGradient>
<linearGradient id="paint17_linear_515_2035" x1="491.141" y1="310.207" x2="491.141" y2="313.386" gradientUnits="userSpaceOnUse">
<stop stop-color="#9FF6EC"/>
<stop offset="1" stop-color="#7D9DFF"/>
</linearGradient>
<linearGradient id="paint18_linear_515_2035" x1="497.434" y1="262.282" x2="497.434" y2="310.909" gradientUnits="userSpaceOnUse">
<stop stop-color="#9FF6EC"/>
<stop offset="1" stop-color="#7D9DFF"/>
</linearGradient>
<linearGradient id="paint19_linear_515_2035" x1="360.612" y1="285.874" x2="381.157" y2="332.818" gradientUnits="userSpaceOnUse">
<stop stop-color="#FDC6C6"/>
<stop offset="1" stop-color="#FFCCA1"/>
</linearGradient>
<linearGradient id="paint20_linear_515_2035" x1="398.769" y1="413.881" x2="396.072" y2="442.059" gradientUnits="userSpaceOnUse">
<stop stop-color="#FDC6C6"/>
<stop offset="1" stop-color="#FAB2B2"/>
</linearGradient>
<linearGradient id="paint21_linear_515_2035" x1="464.444" y1="413.123" x2="462.212" y2="439.105" gradientUnits="userSpaceOnUse">
<stop stop-color="#FDC6C6"/>
<stop offset="1" stop-color="#FAB2B2"/>
</linearGradient>
<linearGradient id="paint22_linear_515_2035" x1="397.557" y1="219.686" x2="394.459" y2="261.483" gradientUnits="userSpaceOnUse">
<stop stop-color="#FDC6C6"/>
<stop offset="1" stop-color="#FFCCA1"/>
</linearGradient>
<linearGradient id="paint23_linear_515_2035" x1="476.228" y1="260.729" x2="473.237" y2="314.407" gradientUnits="userSpaceOnUse">
<stop stop-color="#FDC6C6"/>
<stop offset="1" stop-color="#FFCCA1"/>
</linearGradient>
</defs>
</svg>
